<svg xmlns="http://www.w3.org/2000/svg" xmlns:xlink="http://www.w3.org/1999/xlink" viewBox="0 0 771.81 756.68"><defs><style>.cls-1{isolation:isolate;}.cls-2{fill:#995b34;}.cls-3{fill:#633318;}.cls-4{fill:#aa6944;}.cls-5{fill:#d86c45;}.cls-6{fill:#ffb699;}.cls-20,.cls-7{fill:#f99a79;}.cls-8{fill:#ffcab8;}.cls-9{fill:#fff;}.cls-10{fill:url(#Unbenannter_Verlauf_22);}.cls-11{fill:#16100b;}.cls-12{fill:url(#Unbenannter_Verlauf_22-2);}.cls-13{fill:#fcd2ca;}.cls-14{fill:url(#Unbenannter_Verlauf_49);}.cls-15{fill:url(#Unbenannter_Verlauf_49-2);}.cls-16{fill:#841a06;}.cls-17{fill:#d64b2b;}.cls-18{fill:#ffaf9c;}.cls-19{fill:#894a27;}.cls-20,.cls-21{opacity:0.72;}.cls-21{fill:#e27f64;}.cls-22{fill:#f98869;opacity:0.33;}.cls-23{fill:#d88c66;}.cls-24,.cls-25,.cls-31,.cls-38,.cls-39{fill:none;stroke-miterlimit:10;}.cls-24{stroke:#995b34;}.cls-25{stroke:#c9563f;stroke-width:0.5px;}.cls-26{fill:#f0fff9;}.cls-27,.cls-32,.cls-34,.cls-35{mix-blend-mode:multiply;}.cls-27,.cls-34{opacity:0.31;}.cls-28,.cls-34{fill:#002a2b;}.cls-29{fill:#ccf6e6;}.cls-30{fill:#fff8c5;}.cls-31{stroke:#006a58;stroke-width:0.25px;}.cls-32,.cls-36{fill:#c3eddc;}.cls-32,.cls-35{opacity:0.44;}.cls-33{fill:#eae1ac;}.cls-37{opacity:0.45;}.cls-38,.cls-39{stroke:#64d250;}.cls-38{stroke-width:16px;}.cls-39{stroke-width:12px;}.cls-40{fill:#a5ea96;}</style><linearGradient id="Unbenannter_Verlauf_22" x1="390.05" y1="404.38" x2="389.79" y2="377.9" gradientTransform="translate(-163.85 -99.01) rotate(-12.1)" gradientUnits="userSpaceOnUse"><stop offset="0" stop-color="#008cb2"/><stop offset="0.22" stop-color="#0188ad"/><stop offset="0.5" stop-color="#037b9d"/><stop offset="0.81" stop-color="#086684"/><stop offset="1" stop-color="#0b5570"/></linearGradient><linearGradient id="Unbenannter_Verlauf_22-2" x1="-209.25" y1="403.42" x2="-209.52" y2="376.95" gradientTransform="matrix(-0.98, 0.21, 0.21, 0.98, -121.46, -108.1)" xlink:href="#Unbenannter_Verlauf_22"/><linearGradient id="Unbenannter_Verlauf_49" x1="690.04" y1="355.33" x2="759.63" y2="355.33" gradientTransform="matrix(-0.98, 0.21, 0.21, 0.98, 780.26, -301.34)" gradientUnits="userSpaceOnUse"><stop offset="0" stop-color="#ffb699" stop-opacity="0"/><stop offset="0.01" stop-color="#feb396" stop-opacity="0.09"/><stop offset="0.05" stop-color="#fdae90" stop-opacity="0.28"/><stop offset="0.08" stop-color="#fca98b" stop-opacity="0.45"/><stop offset="0.12" stop-color="#fba586" stop-opacity="0.6"/><stop offset="0.16" stop-color="#fba282" stop-opacity="0.72"/><stop offset="0.21" stop-color="#fa9f7f" stop-opacity="0.83"/><stop offset="0.26" stop-color="#fa9d7c" stop-opacity="0.9"/><stop offset="0.32" stop-color="#f99b7a" stop-opacity="0.96"/><stop offset="0.39" stop-color="#f99a79" stop-opacity="0.99"/><stop offset="0.52" stop-color="#f99a79"/><stop offset="0.65" stop-color="#f99a79" stop-opacity="0.99"/><stop offset="0.71" stop-color="#f99b7a" stop-opacity="0.96"/><stop offset="0.77" stop-color="#fa9d7c" stop-opacity="0.91"/><stop offset="0.81" stop-color="#fa9f7e" stop-opacity="0.83"/><stop offset="0.85" stop-color="#fba282" stop-opacity="0.73"/><stop offset="0.89" stop-color="#fba586" stop-opacity="0.61"/><stop offset="0.92" stop-color="#fca98a" stop-opacity="0.46"/><stop offset="0.96" stop-color="#fdae90" stop-opacity="0.29"/><stop offset="0.99" stop-color="#feb396" stop-opacity="0.1"/><stop offset="1" stop-color="#ffb699" stop-opacity="0"/></linearGradient><linearGradient id="Unbenannter_Verlauf_49-2" x1="161.14" y1="354.12" x2="230.74" y2="354.12" gradientTransform="translate(34.88 -141.6) rotate(-12.1)" xlink:href="#Unbenannter_Verlauf_49"/></defs><g class="cls-1"><g id="Sprechend"><g id="Haarehinten"><path class="cls-2" d="M390.82,329.34l6.33,23.22c9.68-2.72,19.45-61.48,15.13-86.94-19.71-116.26-23.65-136.18-39.49-173.53-17.46-41.18-35.8-60.16-71-70.72C254.05,7.06,229.54,11,143.32,38,69,61.17,48.07,126.66,42.37,166.4,39.52,186.27,49.75,219,69.56,291.75s32.56,84.42,32.56,84.42,27.67,39.91,54.69,32.45l3.3-.93,7-4c7.5-.36-13.81-18.35-4.81-18.29,99.19.71,122.09-63.2,169-86.26l25.8-3.31,30.09,60.81c6-3.23-.25.26,4.69-2.71Z"/><path class="cls-3" d="M360.55,248.24s1-14.74,10.39,3c13.2,25.08,11.7,106.73,11.7,106.73s-7.82,3.25-9.59,2.79-.15-34.26-.15-34.26l-23.5-49.66Z"/><path class="cls-3" d="M301.32,268.77c-57.53-84.82.22-31.07-68.39-14.34C148.63,275,128.68,197,106.55,242.2s52,167.93,52,167.93c20.31-3.1,49.11-2.53,57.94-4.27,88.5-17.47,60.61-11.28,109.78-24.07C326.53,381.71,317.16,292.11,301.32,268.77Z"/><polygon class="cls-3" points="322.95 336.98 329.09 379.62 382.92 357.59 351.93 240.6 322.95 336.98"/><path class="cls-4" d="M136.94,320.45c4.17,22.29,8.77,44.49,13.48,66.66q2.18,10.22,4.37,20.4c.1.48.82.28.72-.2-4.89-22.76-9.75-45.54-14.26-68.39q-1.83-9.33-3.59-18.67c-.09-.47-.81-.27-.72.2Z"/><path class="cls-4" d="M157.12,343.16c2.32,15.64,6.39,30.93,10.08,46.28,1.21,5.05,2.39,10.11,3.5,15.18.1.47.83.27.72-.2-3.55-16.21-8-32.22-11.29-48.49q-1.31-6.45-2.29-13c-.07-.47-.79-.27-.72.2Z"/><path class="cls-4" d="M345.13,298.65c-.34.08-.12,0,0,.32a7.12,7.12,0,0,0,.28.72c.25.69.46,1.4.67,2.11.43,1.46.82,2.94,1.2,4.41,1,3.77,1.87,7.53,2.56,11.36,1.92,10.69,2.81,21.54,4.32,32.3a141.41,141.41,0,0,0,3.35,17.31.37.37,0,0,0,.72-.2c-3-11-4-22.37-5.38-33.62a211.47,211.47,0,0,0-5-28.06c-.46-1.79-.93-3.59-1.52-5.34-.16-.5-.52-2.22-1.33-2-.47.1-.27.83.2.72Z"/><path class="cls-4" d="M349,297.33c5,17.62,6.15,36.05,10.15,53.9a122.08,122.08,0,0,0,4.13,14.53c.16.45.89.25.73-.2-6.2-17.25-7.56-35.76-10.9-53.67-.93-5-2-9.9-3.39-14.76a.37.37,0,0,0-.72.2Z"/></g><polygon class="cls-5" points="35.29 655.83 111.84 704.54 115.11 697.58 35.29 655.83"/><g id="Arm_R"><path class="cls-6" d="M44.7,617.08S17.41,730.47,8.14,765.94c-4.71,18-59.5,184.76-62.23,187.48s34.39,10.24,46.4,1.51S57,826.41,75.27,794.46c21.28-37.11,56.9-155,56.9-155"/><path class="cls-7" d="M36,662.76s28.72,47.1,68.29,55l2.46.82,7.09-21L43.75,654.19Z"/><polygon class="cls-8" points="40.47 642.73 53.57 650.1 -30.75 897.34 40.47 642.73"/><path class="cls-7" d="M87.82,680.66S-18.47,978.94-16.29,977.3c1.34-1,56.13-105.39,94.29-188.16,23.89-51.83,39.49-96.56,36.84-97.83C105.42,686.8,87.82,680.66,87.82,680.66Z"/></g><g id="Hals"><path id="Hals-2" data-name="Hals" class="cls-6" d="M216.36,355.44l-1.23,66.11s-44.76,10-61.68,18.69C126,454.44,338.75,551.31,380.5,503c25-28.92,2.83-53.93-26.6-65.5-11.47-4.5-45.65-13.71-45.65-13.71l-3.27-89Z"/><path class="cls-5" d="M216,359.74v19.65s43.18,36.43,91.28,15.35l-.41-44Z"/><path class="cls-8" d="M218.4,384.3,217,425s10.37-.55,8.73-15.56A71,71,0,0,0,218.4,384.3Z"/><path class="cls-7" d="M307.37,413.22s-18.29,33.3-54.31,45.31c-3.66,1.22-37.66,0-37.66,0l23.2,2.72s20.74,7.1,21.56,7.1,12.82.27,12.82.27l36-48.3-1.63-7.1"/></g><g id="KOPFPBEN_Kopie_3_Kopie_Kopie_Kopie_Kopie_3" data-name="KOPFPBEN Kopie 3 Kopie Kopie Kopie Kopie 3"><g id="Kopf"><path id="Kopf-2" data-name="Kopf" class="cls-6" d="M71.38,143.51S113.1,270.9,129.11,306.8c18.57,41.65,81,87.71,140.91,75.4,47.61-9.78,89.61-92.7,91.7-124.94,1.85-28.44-14.49-80.88-27.26-120.84-8.12-25.41-48.08-51.36-84.17-73.1a49.35,49.35,0,0,0-62.93,10.1Z"/><path class="cls-5" d="M216.11,68.24S161.23,180.51,113.86,203s-15.81,12.19-15.81,12.19l-7.5-44Z"/><path class="cls-7" d="M355.39,210.55s-5.68,50.37-5.84,50.79c-3.46,9.11-35.57,109.31-74.29,119,0,0,35.43-5.58,66-66.08A260.52,260.52,0,0,0,361.61,259"/></g><g id="Augen_Kopie_3_Kopie_Kopie_2_Kopie" data-name="Augen Kopie 3 Kopie Kopie 2 Kopie"><path class="cls-9" d="M266.65,202.14s8.8-22.64,25.14-25.26,23.48-1.17,33.73,12.05c0,0-3.85,18-21.59,22.43C280.28,217.22,266.65,202.14,266.65,202.14Z"/><path class="cls-10" d="M317.15,188.46a20.25,20.25,0,1,1-39.6,8.49c-2.38-11.14,4.6-18.6,15.54-20.94S314.76,177.32,317.15,188.46Z"/><ellipse class="cls-11" cx="296.82" cy="192.04" rx="8.27" ry="8.48" transform="translate(-33.65 66.46) rotate(-12.1)"/><path d="M264.75,201a55.8,55.8,0,0,1,7.95-15.59c4.07-5.63,9.6-10.87,16.68-13,5.92-1.76,12.32-1.11,18.07.56s16.35,9.74,18.55,9.9c0,0,4.23-.69,5.67-2.26-1.59,2.81-3.48,6.59-6.15,8.68-5.59-4-5-4.54-13.09-8.86-6-3.18-13.58-5.68-20.75-3.76-7.8,2.08-13.67,8.1-17.26,14.64a126.47,126.47,0,0,0-6.08,12.45"/><rect class="cls-9" x="275.19" y="196.79" width="19.58" height="5.22" rx="2.17" transform="translate(-60.16 242.48) rotate(-42.1)"/><path class="cls-9" d="M195.06,216.5s-17.3-17.05-33.28-12.74-21.9,8.55-25.82,24.82c0,0,10.89,14.87,28.88,11.6C188.81,235.84,195.06,216.5,195.06,216.5Z"/><path class="cls-12" d="M143.4,224.72A20.25,20.25,0,1,0,183,216.23c-2.39-11.14-11.82-15.07-22.75-12.73S141,213.58,143.4,224.72Z"/><ellipse class="cls-11" cx="163.41" cy="219.65" rx="8.27" ry="8.48" transform="translate(-42.4 39.12) rotate(-12.1)"/><path d="M196.33,214.67a56,56,0,0,0-13.64-11c-6-3.46-13.21-6-20.53-5-6.13.83-11.7,4-16.26,7.92S135,222.21,133,223.26c0,0-4.14,1.1-6.1.26,2.6,1.91,5.87,4.59,9.16,5.41,3.45-6,2.68-6.18,8.32-13.45,4.15-5.36,10.05-10.75,17.39-11.94,8-1.3,15.78,1.79,21.74,6.29a125.43,125.43,0,0,1,10.65,8.86"/><rect class="cls-9" x="142.66" y="225.77" width="19.58" height="5.22" rx="2.17" transform="translate(-113.77 161.11) rotate(-42.1)"/><path class="cls-13" d="M270.26,207.89c.81,1,16.61,12.46,27.65,8.61s6.54,2.61.45,3.47C278.2,222.8,270.26,207.89,270.26,207.89Z"/><path class="cls-13" d="M199.84,222.3c-.33,1.26-10.05,18.17-21.7,19.19s-4.89,5,1,3.34C198.7,239.16,199.84,222.3,199.84,222.3Z"/><path class="cls-14" d="M178.61,186.59c2.36,6.83,4.1,9.8-7.93,9.71s-18.88-2-25.16,4-13.11,17.72-19.2,18.35-16.48-4.25-11.83-10.58,13.83-19.45,26.54-24.6C167.84,172.66,178.61,186.59,178.61,186.59Z"/><path class="cls-15" d="M266.22,166.57c.66,7.2.28,10.62,11.22,5.6s16.42-9.52,24.61-6.61,19.21,10.79,25,8.88,13.29-10.64,6.46-14.51S313,147.86,299.25,148.37C270.34,149.45,266.22,166.57,266.22,166.57Z"/></g><g id="Mund"><path class="cls-16" d="M208.48,305.32l-1.83,4.16S228.1,327.91,234.6,328s36.27-.24,43.69-11.47,13-27.45,13-27.45S261,293.41,260,293.83,208.48,305.32,208.48,305.32Z"/><path class="cls-9" d="M207.43,308.58s.94,3,10.12,4.79,31.66,2.6,42.89-1.34c6.2-2.16,24.51-12,29.11-21.83S207.43,308.58,207.43,308.58Z"/><path class="cls-17" d="M203.38,307.06s6.51-8.81,26.81-13.6c7.57-1.79,16.73-1,17.78-1.65,2.89-1.66,16.16-5.6,17.83-5.82,26.81-3.45,25.28,2.87,25.28,2.87s-23.25,12-40.87,15.34C226.67,308.63,203.38,307.06,203.38,307.06Z"/><path class="cls-17" d="M203.57,306.29c3.61-.73.71-6.41,10.32,4.53,3.79,4.31,20.34,13.25,24.31,14.55,12.69,4.14,25.71-3.7,30.67-7.21,4.59-3.25,20.38-35.12,17.23-30.25-1.1,1.7,3.26-5.75,5.36,1.72,2,7.17-9.29,29.79-14.33,36.53s-18.24,14-30.67,13.6c-23.11-.69-32.42-16.56-37.91-23.51C202.8,309,203.57,306.29,203.57,306.29Z"/><path class="cls-18" d="M220.69,302.7s5.45-1.37,10.43-2.11c6.16-.9,10.63-.19,5.68,1.09S220.69,302.7,220.69,302.7Z"/><path class="cls-18" d="M240.45,330.62s2.53-.65,5.91-1.27c5.94-1.09,6.18-.85,6.07-.73C249.51,332.09,240.4,330.66,240.45,330.62Z"/></g><g id="Brauen_Kopie_3_Kopie_Kopie_Kopie_Kopie_3" data-name="Brauen Kopie 3 Kopie Kopie Kopie Kopie 3"><path class="cls-19" d="M246.53,157.9c.7-.67,10.58-17.64,22.54-22.74,12.85-5.48,16.53-4.38,28.58-3.41,12.78,1,26.08,9.36,26.08,9.36s3.18,2.15-11.63-.53c-6.26-1.14-30.32-3.75-43.92,5a175.36,175.36,0,0,0-17.65,13.84C248.21,161.83,246.53,157.9,246.53,157.9Z"/><path class="cls-19" d="M189.69,180c-.89-.37-16.36-12.47-29.36-12.78-14-.34-17,2.05-27.81,7.4C121,180.31,111.76,193,111.76,193s-2.17,3.17,10.6-4.8c5.4-3.37,26.78-14.7,42.67-11.58a176.08,176.08,0,0,1,21.52,6.33C189.58,184.28,189.69,180,189.69,180Z"/></g><g id="sprossen"><ellipse class="cls-20" cx="249.33" cy="452.99" rx="2.25" ry="1.84" transform="translate(-89.55 62.45) rotate(-12.12)"/><ellipse class="cls-20" cx="229.88" cy="458.56" rx="2.25" ry="1.84" transform="translate(-91.16 58.49) rotate(-12.12)"/><ellipse class="cls-20" cx="229.91" cy="445.72" rx="2.25" ry="1.84" transform="translate(-88.46 58.21) rotate(-12.12)"/><ellipse class="cls-20" cx="219.41" cy="452.72" rx="2.25" ry="1.84" transform="translate(-90.16 56.16) rotate(-12.12)"/><ellipse class="cls-21" cx="199.1" cy="244.11" rx="2.25" ry="1.74" transform="translate(-46.82 47.25) rotate(-12.12)"/><ellipse class="cls-21" cx="193.27" cy="259.53" rx="2.25" ry="1.74" transform="translate(-50.18 46.37) rotate(-12.12)"/><ellipse class="cls-21" cx="181.86" cy="251.41" rx="2.56" ry="2.35" transform="translate(-48.73 43.79) rotate(-12.12)"/></g><g id="sprossen-2" data-name="sprossen"><ellipse class="cls-20" cx="305.6" cy="441.74" rx="2.25" ry="1.84" transform="translate(-85.94 74.01) rotate(-12.12)"/><ellipse class="cls-20" cx="325.63" cy="438.84" rx="2.25" ry="1.84" transform="translate(-84.88 78.15) rotate(-12.12)"/><ellipse class="cls-20" cx="320.33" cy="427.14" rx="2.25" ry="1.84" transform="translate(-82.54 76.78) rotate(-12.12)"/><ellipse class="cls-21" cx="265.64" cy="230.66" rx="2.25" ry="1.74" transform="translate(-42.51 60.92) rotate(-12.12)"/><ellipse class="cls-21" cx="277.29" cy="242.32" rx="2.25" ry="1.74" transform="translate(-44.7 63.62) rotate(-12.12)"/><ellipse class="cls-21" cx="284.36" cy="230.23" rx="2.56" ry="2.35" transform="translate(-42 64.84) rotate(-12.12)"/></g><g id="Rouge"><path class="cls-22" d="M197.47,270.31c2.52,11.73-12.86,25.13-28.6,28.51s-35.09-13.44-37.61-25.17,6.38-13.55,22.13-16.93S195,258.59,197.47,270.31Z"/><path class="cls-22" d="M289.1,252c2.52,11.72,22,17.63,37.79,14.25s26.47-26.67,23.95-38.39-11.38-9.74-27.12-6.36S286.58,240.31,289.1,252Z"/></g><g id="Ohren"><path class="cls-6" d="M353.53,215.52c4.18,19.46,7.26,42.56,8,43.11,16.43,12.31,38.75-32.07,34.57-51.52s-15.48-27.52-28.74-24.67S349.35,196.07,353.53,215.52Z"/><path class="cls-6" d="M124.35,263.51c4.18,19.45,17.17,40.7,3.91,43.54-27.22,5.85-47.32-16.94-51.5-36.39s3.15-28.59,16.41-31.43S120.17,244.06,124.35,263.51Z"/><path class="cls-5" d="M114.6,254.53S99,236.66,89,249.44,87,271.62,87,271.62s9.2-19.72,9.23-6.44c0,17,24.33,28.82,24.33,28.82s-19.47-25.68-10.63-28.7S114.6,254.53,114.6,254.53Z"/><path class="cls-5" d="M355.27,208.29s6.85-22.68,21.3-15.18,10.88,19.44,10.88,19.44-16.49-14.21-11.06-2.09c7,15.53-10.35,36.27-10.35,36.27s7.21-31.41-2.09-30.53S355.27,208.29,355.27,208.29Z"/></g><path id="nase" class="cls-5" d="M220.28,265.64a.79.79,0,0,1,.37-1.44,187,187,0,0,0,20-2.47c8.07-1.74,16.65-4.36,20.35-5.53a.78.78,0,0,1,.9,1.17c-2,3.05-7.24,9.2-18.86,11.85S223.52,267.85,220.28,265.64Z"/><g id="Haareoben"><path class="cls-2" d="M209.75,38.08c17.34,5.14,35.82,6.11,52.73,12.5,26.91,10.17,71.78,14.24,88,38,17.59,25.73,29.78,41.9,16.54,93.31-5.29-16.6-17.32-24.85-32.2-33.91s-41.75-13.18-56-23.13-34.12-27.55-42.68-42.75c-6.62-11.75-13.48-19.5-23.06-29.38-19.31-19.93-60.17,4.23-82.19,9.88-25.32,6.49-26.55-.79-47.63,14.65s-40.32,88.08-36.93,114c0,0,.13,1,.33,2.6C47.94,205,63,242.92,41.84,277c-7.39,11.93,26.57-18,24.69-37.12"/><path class="cls-2" d="M94.05,253.74c-2.06-21.5,6,11.61,20.06-4.77,18.16-21.17-18.19-56.59,3.85-73.68C151.85,149,234.42,75.2,231.59,32.41a156.47,156.47,0,0,1-17,13.26c-20.61,14-44.21,23.77-67.28,33.59-13.19,5.62-26.48,11.41-37.93,20-18.83,14.19-40,24.52-43.55,47.83s10.53,59.33,24.28,78.49c2.4-7.08,2.75,36.63,5.15,29.55"/><path class="cls-2" d="M72.63,288.34a238.22,238.22,0,0,1-19.54-40.58,180.28,180.28,0,0,1-9.31-37A152.67,152.67,0,0,1,42.91,177a146.59,146.59,0,0,1,5.84-30A155.85,155.85,0,0,1,59.53,120.7,174.89,174.89,0,0,1,73.45,98.28,195.87,195.87,0,0,1,88.83,79.76,207.94,207.94,0,0,1,104,65.21c4.17-3.62,8.5-7.09,13-10.33,3-2.16,6.06-4.26,9.25-6.13.49-.29,1-.57,1.49-.84.85-.47.09-1.76-.76-1.3a92.1,92.1,0,0,0-8.21,5.18c-4.28,3-8.43,6.16-12.44,9.5Q98.48,67.77,91.34,75A200.54,200.54,0,0,0,75.75,92.75a181.69,181.69,0,0,0-14.58,21.78,161.27,161.27,0,0,0-11.71,25.53,148,148,0,0,0-7.21,29.47,150.11,150.11,0,0,0-.87,32.89A171.88,171.88,0,0,0,48.56,239a221.89,221.89,0,0,0,16.89,39.76q2.82,5.25,5.89,10.36a.75.75,0,0,0,1.29-.75Z"/><path class="cls-4" d="M246.29,48.92c8.13,18.61,29.6,34.87,47.1,45.15,22.44,13.18,35.94,10.73,40.72,10.24-14-48.95-72.95-37.79-88.58-56.34"/><path class="cls-4" d="M47,205.94S78,250.15,88.1,307.7s76.36,102.56,76.36,102.56-29,7.76-55.72-21.81C85.47,362.69,47,205.94,47,205.94Z"/><path class="cls-19" d="M49.69,184.92c10.66,49.63,46.81,56.8,46.81,56.8l20.36,17.12s7.36-23.21,3.45-34.93-8.39-19.55-9.65-29.33a24.57,24.57,0,0,1,4.44-17s-78.31,18.77-38.71-54.21S39,135.3,49.69,184.92Z"/><path class="cls-19" d="M329.63,47.07s-16.05,47.41,26.66,85.13,47.84,84.35,47.84,84.35-17.36-91.18-46.32-141.62C343.54,50.09,329.63,47.07,329.63,47.07Z"/><path class="cls-23" d="M106.32,64.32S80.61,78.9,73.31,98.6s-10.4,37.63-1.46,20.09C82,98.79,100.11,83.37,100.11,83.37s40.82-41.33,24-27.48C117.74,61.18,106.32,64.32,106.32,64.32Z"/><path class="cls-2" d="M83.62,76.12c-2.46,1.59-4.32,4.09-6,6.43A109.86,109.86,0,0,0,71,93a198.53,198.53,0,0,0-11.81,24.28,48.79,48.79,0,0,0-2.76,8.31,193.74,193.74,0,0,0-2.94,21.34,229.68,229.68,0,0,0,.33,45c1.5,14.07,4.6,28.56,13.83,39.72a1.51,1.51,0,0,0,1.82.24A4.43,4.43,0,0,0,70.87,226c-.94-1.69-3.53-.18-2.59,1.51a1.36,1.36,0,0,1-.33,1.77l1.81.23c-7.94-9.61-11-22.2-12.57-34.32a224.59,224.59,0,0,1-1.13-43q.75-11,2.53-21.79a52.8,52.8,0,0,1,2.56-10A177.27,177.27,0,0,1,71.83,97.64a135.15,135.15,0,0,1,7.24-12,50,50,0,0,1,3.25-4.27,15.55,15.55,0,0,1,2.82-2.65c1.61-1,.11-3.65-1.52-2.59Z"/><path class="cls-24" d="M221.79,34.92s7.1,75.93,47.13,90.78A405.61,405.61,0,0,0,346,145.57l-104.4-92.3Z"/><path class="cls-2" d="M86,77.28c19.2-16,41.05-29.36,65.18-36.43a128,128,0,0,1,52.39-4.44,102.93,102.93,0,0,1,34.19,10.33,80.87,80.87,0,0,0,12.6,5.46c6.52,2.11,13.19,3.75,19.85,5.33,16.57,3.92,33.27,7.28,49.8,11.35,8,2,16,4.1,23.9,6.64a110.51,110.51,0,0,1,18.75,7.59,37,37,0,0,1,6.41,4.23,22.3,22.3,0,0,1,4.83,6.2,251.82,251.82,0,0,1,17,34.74c4.67,11.87,8.49,24.27,10.06,37,1.68,13.65,2.18,27.48,2.75,41.22.28,6.81.55,13.62.9,20.43.3,5.7.79,11.39.95,17.09.27,9.51-.06,19-.13,28.53a267.53,267.53,0,0,0,1.08,30.63c.94,8.88,2.57,17.92,6.42,26.05a36.68,36.68,0,0,0,6.36,9.47c.66.7,1.72-.36,1.06-1.06-5.95-6.3-8.85-14.84-10.6-23.16-2.1-10-2.63-20.24-2.79-30.41s.13-20.12.19-30.18c.06-10.88-.81-21.69-1.31-32.56-.63-13.72-1-27.45-2-41.15-.49-6.64-1-13.32-2.08-19.89a142.92,142.92,0,0,0-4.52-18.58,227.41,227.41,0,0,0-15.06-36.26,169.36,169.36,0,0,0-8.48-15.26,19.06,19.06,0,0,0-4.38-4.58c-4.56-3.57-10-6-15.33-8.08a213.13,213.13,0,0,0-22.11-7.11c-16.81-4.58-33.9-8.11-50.9-11.93-7.49-1.69-15-3.4-22.39-5.41a92.89,92.89,0,0,1-15.79-5.35c-4.15-2-8.08-4.25-12.37-6a106.29,106.29,0,0,0-17.81-5.31,124.72,124.72,0,0,0-48.85-.15c-22.55,4.32-43.66,14.39-62.43,27.44C95.66,67.63,90.23,71.82,85,76.22c-.75.62.32,1.68,1.06,1.06Z"/><path class="cls-24" d="M47.58,199.26s50.16,149.33,52.31,172c1.32,13.95-6.09,32.24-6.09,32.24"/><path class="cls-4" d="M83.36,158.59c-2.35-3.75-2.8-8.38-2.69-12.81.5-18.89,10.33-36.64,23.68-50a208,208,0,0,1,18.6-16c16.44-13,32.9-26.07,50-38.17a17.49,17.49,0,0,1,6.13-3.2c2.26-.51,4.92,0,6.29,1.92,2.2,3,0,7.26-2.48,10.13-6.74,8-15.09,14.36-23.27,20.83-21.69,17.14-43,35.57-57.73,59C98.3,136,95.08,142.09,90.8,147.39a53.62,53.62,0,0,1-9.18,9"/><path class="cls-4" d="M109.62,238.09C97.09,220.45,86,198.93,88.47,176.61c1.5-13.55,8.39-25.57,18-35a108,108,0,0,1,10.84-9.2c9.46-7.12,19.52-13.3,29.42-19.78a147,147,0,0,0,15.4-10.94,43.14,43.14,0,0,0,5.94-6.58,173.14,173.14,0,0,0,13.76-21.64q7.08-12.72,13.1-26a181.31,181.31,0,0,0,8.46-21.24c.38-1.23.73-2.46,1-3.7.1-.47-.62-.67-.73-.2-1.55,6.79-4.4,13.35-7.16,19.72-3.79,8.76-8,17.35-12.47,25.77a223.35,223.35,0,0,1-14,23.31,66.74,66.74,0,0,1-6.43,8.07c-3.46,3.62-7.83,6.39-11.93,9.2C137,118.43,121,127,107.85,139.2c-9.53,8.83-16.92,20-19.44,32.87-3.94,20.13,4,40.39,14.49,57.27,1.92,3.11,4,6.14,6.07,9.12.28.39.93,0,.65-.37Z"/><path class="cls-4" d="M223,20.87a218.63,218.63,0,0,0,15.53,40c6.64,13.2,14.6,25.91,24.47,36.95a95.86,95.86,0,0,0,14.88,13.66,131.41,131.41,0,0,0,22.23,12.63c7.84,3.64,15.88,6.85,23.81,10.28a109.64,109.64,0,0,1,10.28,4.86A82.77,82.77,0,0,1,343,145a132.48,132.48,0,0,1,31.5,33.13q1.32,2,2.53,4.08a.38.38,0,0,0,.65-.38c-7.35-12.6-17.64-23.81-28.78-33.13A87.35,87.35,0,0,0,331.48,137c-7.59-3.72-15.55-6.73-23.31-10.08a186,186,0,0,1-22.91-11.43,91.53,91.53,0,0,1-17.39-13.59C257.41,91.41,249.06,79,242.06,66a219.41,219.41,0,0,1-17-40.6c-.48-1.57-.93-3.14-1.37-4.72a.37.37,0,0,0-.72.2Z"/><path class="cls-4" d="M339.08,116.21C345,130,355,141.32,365.2,152.07c10.53,11.12,22.14,22,29.66,35.54a65.65,65.65,0,0,1,7.74,22.3c1.2,8.06,1.22,16.24,1.23,24.37,0,7.89.22,15.7.85,23.57.63,8,1,16.09,1.58,24.12,1.13,15.31,3.5,30.46,10.12,44.45.91,1.92,1.88,3.8,2.91,5.66a.38.38,0,0,0,.65-.38,94.62,94.62,0,0,1-9-22.7,143.1,143.1,0,0,1-3.59-22.83c-.7-8-1.05-16-1.6-24-.28-4-.71-8-.91-12.09s-.23-7.78-.25-11.67c0-8.07.08-16.17-.71-24.22a68,68,0,0,0-5.76-21.81c-6.36-14-17.42-25.21-27.9-36.16s-21.14-21.92-28.13-35.4c-.85-1.65-1.64-3.32-2.37-5-.18-.44-.83-.06-.64.38Z"/><path class="cls-4" d="M44.92,150.14c-.63,5.34-1,10.72-1.29,16.09-.42,7-.75,14.06-.65,21.09a64.61,64.61,0,0,0,.46,7.75c.47,3.48,1.78,6.86,2.69,10.24,2.67,9.87,4.95,19.85,7.23,29.82,4.6,20.21,9.07,40.58,16.25,60.07C76.5,313.92,86.79,331,96.14,348.56c9.22,17.33,17.53,35.5,19.89,55.18.3,2.48.5,5,.62,7.46,0,.49.77.49.75,0-.93-19.56-7.83-37.88-16.56-55.2-9-17.89-19.86-34.91-27.55-53.44-7.93-19.09-12.73-39.31-17.33-59.4-2.29-10-4.51-20-7-29.93q-1.83-7.35-3.93-14.62a31.52,31.52,0,0,1-1.16-7.1,192.78,192.78,0,0,1,.23-20.11c.3-6.2.7-12.41,1.29-18.59.08-.89.17-1.78.28-2.67.06-.48-.7-.47-.75,0Z"/></g><path class="cls-2" d="M395.86,257.8s-15.69,33.51,8.6,40,34.23-1.77,34.23-1.77-28.44-5.05-34.51-17.71A146.61,146.61,0,0,1,395.86,257.8Z"/><path class="cls-2" d="M134.51,39.85S136.76,17.18,167,17.79s46.72,5,46.72,5-29.2-3.36-45.66,1.85-33.59,21-33.59,21Z"/><path class="cls-19" d="M143.32,38s-9.55,32.89-23.69,39.83S153.17,65,153,51.1s-.13-16.17-.13-16.17l-9.53,3"/><path class="cls-13" d="M116.55,268.12S121,292.7,129.8,308.4s18,27.52,25.37,34.32-12.38-12.83-19-31.92S116.55,268.12,116.55,268.12Z"/></g><g id="Hand_R"><path class="cls-6" d="M630.67,458.21l74.19-38.64s-8.69-40.28-34.36-30.92-37,4.4-51,16.41-21,57.15-21,57.15Z"/><path class="cls-6" d="M652.38,405.11a307.93,307.93,0,0,0,25.36-24.05c10.63-11.5,19.48-24.42,22.34-27.9,5.27-6.41-1.52-11.66-16-4.57s-35.19,29.1-36.16,29.85-22.59,16.05-28.4,24.8c-5.65,8.52-9,19.5-9,19.5Z"/><path class="cls-6" d="M689.26,404.35,722,376.3l32-39.88s7.7-7.4-2.63-6.15-21.55,11.52-23.73,15.86c-.76,1.51-19.3,15.37-25.21,22-.68.76-42.67,23.44-42.67,23.44Z"/><path class="cls-6" d="M695.65,415.31l32.75-28.05,32-39.88s7.7-7.4-2.63-6.15S724.46,365,722.27,369.29s-52.12,35.57-52.12,35.57Z"/><path class="cls-6" d="M705.18,417l31-26.26,28.07-40.15s6.89-7.59-3-5.6S730.82,370,729,374.25s-47.69,37.66-47.69,37.66Z"/><path class="cls-6" d="M703.49,419.71,724,407.63,761.34,368s8-6.39-2-6-34.06,19.8-36.52,23.73-53.1,29.55-53.1,29.55Z"/><path class="cls-25" d="M692.08,397.65s10.92-7.28,21.78-15.53,30.33-32.85,30.33-32.85"/><path class="cls-25" d="M702.39,403.23s14-9.44,24.83-17.68,30.33-32.85,30.33-32.85"/><path class="cls-25" d="M708,408.09s7.28-4.61,18.15-12.85,30.32-32.85,30.32-32.85"/><path class="cls-8" d="M649.51,442.58c-.73,1.14,67.7-29.4,63.77-30.28S654.79,434.27,649.51,442.58Z"/></g><g id="Hose_Kopie_Kopie_3" data-name="Hose Kopie Kopie 3"><path class="cls-26" d="M32.29,621.45c16.92-64.41,88.13-173.4,88.13-173.4l47.22-14.9s-25.49,24.66-44.75,56.76c-12.28,20.47-49.4,106.16-66.59,146.27-.43,1-24.15-13.37-24.15-13.37"/><g class="cls-27"><path class="cls-28" d="M111.43,593.88c-6.55,17.47,9.28,56,21.28,85.15"/></g></g><g id="Shirt"><g id="Kleidung"><path class="cls-29" d="M174.47,430.69S189.2,477,264.52,477c83,0,86.78-42.28,86.78-42.28l63,14.77s9.69,175.06-18,249.7c-13.92,54.85-5.47,78-5.39,78.66,1.64,12.49,6.74,22.7,14.81,73.48,0,0-42.85,17.88-135.09,14.06-81.8-3.39-127.37-6.86-126.89-7.51,3.34-4.57,10.23-43.25,16-80.91,2-13-17.1-73.1-19.65-79.42-39.3-97.42-19.44-249.49-19.44-249.49Z"/><path class="cls-29" d="M120.42,448.05S59,536.47,32,623.25C55.74,665,124.51,674,124.51,674l39.3-85.14Z"/><path class="cls-29" d="M413.52,449.79s72.59,79.83,99.61,166.61c-23.74,41.75-88.93,53.36-88.93,53.36l-54.07-79.15Z"/></g><path class="cls-30" d="M33.84,638.71l-3.69,15,86.58,45.64S121.9,685,122,685C123.57,685,33.84,638.71,33.84,638.71Z"/><path class="cls-30" d="M513.24,624.93l9.22,9.12-79.4,50.81s-6.95-12.5-7-12.5C434.44,672.36,513.24,624.93,513.24,624.93Z"/><path class="cls-31" d="M168.74,438.6s-50.22,68.09-58,90.61c-2.92,8.46-45.18,112.92-45.18,112.92"/><path class="cls-31" d="M177.47,453.89s-58.2,92.1-61.81,100.29c-12.28,27.83-32.9,97.27-32.9,97.27"/><path class="cls-31" d="M183.47,459.89S123,550.49,132,595.52c3.64,18.2,32.88,132.36,32.88,145.45s-4.84,115.71-4.84,115.71"/><path class="cls-31" d="M179.11,856.27s2.18-110.38.54-130-25.91-118.09-25.51-133.18c.81-31.52,43.52-122.8,43.52-122.8"/><path class="cls-31" d="M217.31,477.9s-33.43,102.47-32.88,130.31,18.69,247.38,18.69,247.38"/><path class="cls-31" d="M240.23,483.36s-20.6,92.1-21.83,130.58c-1.1,34.58,11.46,241.11,11.46,241.11"/><path class="cls-31" d="M255.24,485s-1.77,93.87.41,126.08,0,250.11,0,250.11"/><polyline class="cls-31" points="276.8 485 280.08 588.7 287.58 859.14"/><polyline class="cls-31" points="321.97 856.68 309.55 591.97 297.54 482.27"/><path class="cls-31" d="M324.29,474.08s28.92,86.78,28.92,108.61,6,273.58,6,273.58"/><path class="cls-31" d="M384.19,852.18s-5.87-157-4.23-171.79,20.74-77.5,12.55-103.15-52.4-114.62-52.4-114.62"/><path class="cls-31" d="M352.67,446.79s20.74,12.55,36,39.3,66.5,170.46,66.5,170.46"/><path class="cls-31" d="M480.16,639.91s-51.08-155.46-62-166.37S354.31,440,354.31,440"/><path class="cls-32" d="M413.87,450.2l-55.61-13.3-1.15,2-1.17-.56s-26.6,43.39-72,44.62-93.74-19.24-93.74-19.24,63,62.63,122.39,40.12C358,486.59,381.31,465.29,391,458.05c6.11,4.85,14.57,14.24,19,20.4,16.37,22.92,82.89,116.76,60.68,69.64S413.87,450.2,413.87,450.2Z"/><path class="cls-33" d="M263.43,468.35s-9.93,13.06-9.41,13.06l20.46-.2Z"/><polygon class="cls-34" points="252.79 465.14 247.06 485.41 281.03 485.2 276.73 472.1 252.79 465.14"/><path class="cls-34" d="M167.64,433.15S217,521,226.86,519.93,264.25,469,264.25,469L175,430.42l-7.37,2.73"/><path class="cls-34" d="M357.78,435.88s-41.41,87.6-51.23,86.5S262,469,262,469l92-33.43"/><g class="cls-35"><path class="cls-36" d="M419.83,560c-3.95,9.57-8.53,68.45-12.69,85.71-.05.18,16.12,23.41,16.12,23.41s45.54-24.52,44.1-21.64c-.81,1.64-23-48.78-37.55-72.91-1.48-2.47-7.46-14.43-10-15.82"/></g><g class="cls-37"><path class="cls-26" d="M118.8,567.28c-.65,12.4,4.88,59.9,8.22,71.46,3.86,13.35,12.26,38.46,19.48,48.84s18.25,13.15,28.67,14.06c1.21.11,2.59,0,3.37-1.25s.63-2.89.4-4.39c-1.63-10.36-8.11-17.69-13.92-24.64-15.06-18-31.25-62.42-41.89-85.62"/></g><path class="cls-38" d="M350.21,435s-6.62,44.72-89,42C186.11,474.53,173.37,431,173.37,431"/><path class="cls-39" d="M20.48,623.15s61.27,38.21,109.3,58.13"/><path class="cls-39" d="M518.64,613.9S472.88,653.22,421.7,674"/><g class="cls-35"><path class="cls-36" d="M407.11,645.46c-10.09,30.62-23.13,84.73-46.05,130-2.66,5.24-17.12,54.91-17.12,80.71,0,3.27,46-1.09,62.35-6.83-9.2-34.53-19-66.35-19-88.62-.16-40.27,6-51.05,12.28-74.81,2.33-8.83,4.35-17.34,4.82-21.1"/></g><path class="cls-34" d="M416.53,580.37,408,647.6s9.78,7.28,11.83-11.55S416.53,580.37,416.53,580.37Z"/><path class="cls-34" d="M104.33,620.9l24,43.94S106.24,638.36,104.33,620.9Z"/><polygon class="cls-40" points="23.69 617.76 56.16 636.73 51.39 648.74 16.87 628.68 23.69 617.76"/><path class="cls-30" d="M167.1,428.85l48-15.28,48.31,54.85s-34,46.87-34.11,46.66C228.62,514,167.1,428.85,167.1,428.85Z"/><path class="cls-30" d="M355.4,434.24l-46.66-18.59-45.31,52.7S302.78,515.23,303,515C304,514.06,355.4,434.24,355.4,434.24Z"/></g><path class="cls-26" d="M32.29,621.45c16.92-64.41,88.13-173.4,88.13-173.4l47.22-14.9s-25.49,24.66-44.75,56.76c-12.28,20.47-49.4,106.16-66.59,146.27-.43,1-24.15-13.37-24.15-13.37"/><g id="Arm_L_oben"><path class="cls-6" d="M449.25,681.1c18.13-11.75,66.58-44.49,69.64-45,.75-.13,16.08.51,19.91-6.9,41.85-80.9,68.14-201.59,69.2-204,10-22.67,21.32-13.51,32.93,18.39,5.08,14-36.25,272.42-86.81,285.7C518.29,738.7,449.7,681.8,449.7,681.8"/><path class="cls-7" d="M619.48,584.78l6.64-32.17-20.93,41.87c-1.14,6.47-33.37,111.13-60.77,110.81-17.22-.2-78.25-35.24-78.25-35.24l-11.11,7.22-6.38,4c68,54.7,96.32,51,99.32,51.06C585.27,733.37,619.48,584.78,619.48,584.78Z"/><ellipse class="cls-7" cx="618.85" cy="484.81" rx="3.68" ry="3.27" transform="translate(23.39 998.07) rotate(-78.84)"/><circle class="cls-7" cx="624.19" cy="497.96" r="2.05"/><ellipse class="cls-7" cx="622.05" cy="508.8" rx="2.46" ry="2.05" transform="translate(2.42 1020.55) rotate(-78.84)"/><circle class="cls-7" cx="627.86" cy="490.97" r="1.84"/></g></g></g></svg>