<svg width="16" height="16" viewBox="0 0 16 16" fill="none" xmlns="http://www.w3.org/2000/svg">
<path fill-rule="evenodd" clip-rule="evenodd" d="M11 3C11.8284 3 12.5 2.32843 12.5 1.5C12.5 0.671573 11.8284 0 11 0C10.1715 0 9.49997 0.671573 9.49997 1.5C9.49997 2.32843 10.1715 3 11 3ZM6.49997 3.5C6.49997 4.32843 5.8284 5 4.99997 5C4.17154 5 3.49997 4.32843 3.49997 3.5C3.49997 2.67157 4.17154 2 4.99997 2C5.8284 2 6.49997 2.67157 6.49997 3.5ZM6.32528 8.22594C6.11035 8.79229 5.99997 9.3934 5.99997 10L5.99997 13C5.99997 13.2626 6.0517 13.5227 6.15221 13.7654C6.25272 14.008 6.40004 14.2285 6.58576 14.4142C6.77147 14.5999 6.99195 14.7472 7.2346 14.8478C7.47725 14.9483 7.73733 15 7.99997 15C8.26261 15 8.52269 14.9483 8.76534 14.8478C9.00799 14.7472 9.22847 14.5999 9.41418 14.4142C9.5999 14.2285 9.74722 14.008 9.84773 13.7654C9.94824 13.5227 9.99997 13.2626 9.99997 13V12C9.99997 11.3434 9.87064 10.6932 9.61937 10.0866C9.36809 9.47996 8.9998 8.92876 8.5355 8.46447C8.27438 8.20335 7.98578 7.97259 7.67528 7.77594C7.82022 7.55928 7.98633 7.35678 8.17154 7.17157C8.54298 6.80014 8.98393 6.5055 9.46924 6.30448C9.95454 6.10346 10.4747 6 11 6C11.5253 6 12.0454 6.10346 12.5307 6.30448C13.016 6.5055 13.457 6.80014 13.8284 7.17157C14.1998 7.54301 14.4945 7.98396 14.6955 8.46927C14.8965 8.95457 15 9.47471 15 10V15.5C15 15.7761 15.2238 16 15.5 16C15.7761 16 16 15.7761 16 15.5V10C16 9.34339 15.8706 8.69321 15.6194 8.08658C15.3681 7.47996 14.9998 6.92876 14.5355 6.46447C14.0712 6.00017 13.52 5.63188 12.9134 5.3806C12.3068 5.12933 11.6566 5 11 5C10.3434 5 9.69318 5.12933 9.08655 5.3806C8.47992 5.63188 7.92873 6.00017 7.46444 6.46447C7.20301 6.72589 6.97202 7.01486 6.77522 7.32577C6.20852 7.11054 5.60699 7 4.99997 7C4.34336 7 3.69318 7.12933 3.08655 7.3806C2.47992 7.63188 1.92873 8.00017 1.46444 8.46447C1.00014 8.92876 0.631845 9.47995 0.380572 10.0866C0.129298 10.6932 -3.05176e-05 11.3434 -3.05176e-05 12V15.5C-3.05176e-05 15.7761 0.223828 16 0.49997 16C0.776112 16 0.99997 15.7761 0.99997 15.5L0.999969 12C0.999969 11.4747 1.10343 10.9546 1.30445 10.4693C1.50547 9.98396 1.80011 9.54301 2.17154 9.17157C2.54298 8.80014 2.98393 8.5055 3.46924 8.30448C3.95454 8.10346 4.47468 8 4.99997 8C5.45185 8 5.89992 8.07657 6.32528 8.22594ZM8.99997 12V13C8.99997 13.1313 8.9741 13.2614 8.92385 13.3827C8.87359 13.504 8.79993 13.6142 8.70708 13.7071C8.61422 13.8 8.50398 13.8736 8.38265 13.9239C8.26133 13.9741 8.13129 14 7.99997 14C7.86865 14 7.73861 13.9741 7.61729 13.9239C7.49596 13.8736 7.38572 13.8 7.29286 13.7071C7.2 13.6142 7.12634 13.504 7.07609 13.3827C7.02584 13.2614 6.99997 13.1313 6.99997 13L6.99997 10C6.99997 9.54866 7.07635 9.10112 7.22537 8.67621C7.44153 8.82094 7.64357 8.98675 7.8284 9.17157C8.19983 9.54301 8.49447 9.98396 8.69549 10.4693C8.89651 10.9546 8.99997 11.4747 8.99997 12Z" fill="url(#paint0_linear_1002_4269)"/>
<defs>
<linearGradient id="paint0_linear_1002_4269" x1="2.94729" y1="-2.41228e-07" x2="15.5789" y2="13.4737" gradientUnits="userSpaceOnUse">
<stop offset="0.307292" stop-color="#10B981"/>
<stop offset="1" stop-color="#84CC16"/>
</linearGradient>
</defs>
</svg>
