<svg width="328" height="109" viewBox="0 0 328 109" fill="none" xmlns="http://www.w3.org/2000/svg">
<path opacity="0.22" d="M88.2753 104.697C116.122 104.927 138.882 82.5308 139.113 54.6734C139.343 26.816 116.956 4.04637 89.1098 3.81601C61.2634 3.58566 38.5026 25.9818 38.2722 53.8392C38.0418 81.6967 60.4289 104.466 88.2753 104.697Z" fill="white"/>
<path opacity="0.22" d="M234.367 105.091C262.213 105.321 284.974 82.9251 285.204 55.0677C285.435 27.2103 263.047 4.44065 235.201 4.2103C207.355 3.97995 184.594 26.3761 184.364 54.2335C184.133 82.0909 206.52 104.861 234.367 105.091Z" fill="white"/>
<path d="M88.2753 104.697C116.122 104.927 138.882 82.5308 139.113 54.6734C139.343 26.816 116.956 4.04637 89.1098 3.81601C61.2634 3.58566 38.5026 25.9818 38.2722 53.8392C38.0418 81.6967 60.4289 104.466 88.2753 104.697Z" stroke="#64D250" stroke-width="6" stroke-miterlimit="10"/>
<path d="M234.367 105.091C262.213 105.321 284.974 82.9251 285.204 55.0677C285.435 27.2103 263.047 4.44065 235.201 4.2103C207.355 3.97995 184.594 26.3761 184.364 54.2335C184.133 82.0909 206.52 104.861 234.367 105.091Z" stroke="#64D250" stroke-width="6" stroke-miterlimit="10"/>
<path d="M138.534 50.5386C138.534 50.5386 164.588 27.8384 182.476 52.205" stroke="#64D250" stroke-width="6" stroke-miterlimit="10"/>
<path d="M284.73 40.98L289.059 39.0212L289.579 42.4607C289.579 42.4607 304.538 30.705 313.528 37.6844C322.527 44.6656 323.75 57.798 323.75 57.798L322.175 57.6872C322.175 57.6872 314.725 44.5907 306.657 45.1092C298.59 45.6277 287.269 51.1537 287.269 51.1537L284.73 40.98Z" fill="#64D250"/>
<path d="M41.9529 34.157L38.2341 31.1977L36.886 34.4045C36.886 34.4045 25.2593 19.3452 14.8354 23.9105C4.40172 28.474 0.00182842 40.9048 0.00182842 40.9048L1.55694 41.1848C1.55694 41.1848 12.4304 30.8109 20.1194 33.2918C27.8102 35.7629 37.0005 43.3964 37.0005 43.3964L41.9529 34.157Z" fill="#64D250"/>
</svg>
